<svg xmlns="http://www.w3.org/2000/svg" xmlns:xlink="http://www.w3.org/1999/xlink" width="57" height="58" version="1.1" viewBox="0 0 57 58"><title>Group 5</title><g id="NS&amp;I_final" fill="none" fill-rule="evenodd" stroke="none" stroke-width="1"><g id="NS&amp;I-landing-page---18f-templateish" transform="translate(-473.000000, -1582.000000)"><g id="Group-5" transform="translate(473.000000, 1582.000000)"><g id="Group-3" fill="#B3EFFF" transform="translate(2.000000, 2.000000)"><ellipse id="Oval-Copy-3" cx="26" cy="26.929" rx="26" ry="26.5" style="mix-blend-mode:multiply"/></g><g id="icon-/-database-2" stroke="#000" stroke-linecap="round" stroke-linejoin="round" stroke-width="2"><g id="icon-/-database"><path id="Combined-Shape" d="M28.5,20.5416667 C37.681734,20.5416667 45.125,18.107215 45.125,15.1041667 C45.125,12.1011183 37.681734,9.66666667 28.5,9.66666667 C19.318266,9.66666667 11.875,12.1011183 11.875,15.1041667 C11.875,18.107215 19.318266,20.5416667 28.5,20.5416667 Z M45.125,27.7916667 C45.125,31.1347222 37.7361111,33.8333333 28.5,33.8333333 C19.2638889,33.8333333 11.875,31.1347222 11.875,27.7916667 M11.875,14.5 L11.875,40.372549 C11.875,43.4402941 19.2638889,45.9166667 28.5,45.9166667 C37.7361111,45.9166667 45.125,43.4402941 45.125,40.372549 L45.125,14.5"/></g></g></g></g></g></svg>